<mxfile host="app.diagrams.net" modified="2023-10-23T10:05:30.126Z" agent="Mozilla/5.0 (Windows NT 10.0; Win64; x64) AppleWebKit/537.36 (KHTML, like Gecko) Chrome/118.0.0.0 Safari/537.36 Edg/118.0.2088.61" etag="11R9dS624C7mt0zjaswT" version="22.0.6" type="github">
  <diagram name="第 1 页" id="XaicX3cYYFWenSNxdmKn">
    <mxGraphModel dx="2942" dy="1169" grid="1" gridSize="10" guides="1" tooltips="1" connect="1" arrows="1" fold="1" page="1" pageScale="1" pageWidth="827" pageHeight="1169" math="0" shadow="0">
      <root>
        <mxCell id="0" />
        <mxCell id="1" parent="0" />
        <mxCell id="JwPCDsrIfk_1fl6KGNgR-8" value="" style="rounded=0;whiteSpace=wrap;html=1;fillColor=#99CCFF;" parent="1" vertex="1">
          <mxGeometry x="-90" y="35" width="430" height="490" as="geometry" />
        </mxCell>
        <mxCell id="JwPCDsrIfk_1fl6KGNgR-7" value="" style="rounded=0;whiteSpace=wrap;html=1;fillColor=#FFCC99;" parent="1" vertex="1">
          <mxGeometry x="-30" y="90" width="310" height="380" as="geometry" />
        </mxCell>
        <mxCell id="JwPCDsrIfk_1fl6KGNgR-2" value="" style="rounded=0;whiteSpace=wrap;html=1;fillColor=#CCFFCC;" parent="1" vertex="1">
          <mxGeometry x="30" y="130" width="190" height="290" as="geometry" />
        </mxCell>
        <mxCell id="JwPCDsrIfk_1fl6KGNgR-6" value="" style="rounded=0;whiteSpace=wrap;html=1;" parent="1" vertex="1">
          <mxGeometry x="80" y="170" width="90" height="200" as="geometry" />
        </mxCell>
        <mxCell id="JwPCDsrIfk_1fl6KGNgR-19" value="0.2m-1.5m" style="text;strokeColor=none;fillColor=none;spacingLeft=4;spacingRight=4;overflow=hidden;rotatable=0;points=[[0,0.5],[1,0.5]];portConstraint=eastwest;fontSize=12;whiteSpace=wrap;html=1;" parent="1" vertex="1">
          <mxGeometry x="170" y="245" width="50" height="35" as="geometry" />
        </mxCell>
        <mxCell id="JwPCDsrIfk_1fl6KGNgR-20" value="1.5m-3.0m" style="text;strokeColor=none;fillColor=none;spacingLeft=4;spacingRight=4;overflow=hidden;rotatable=0;points=[[0,0.5],[1,0.5]];portConstraint=eastwest;fontSize=12;whiteSpace=wrap;html=1;" parent="1" vertex="1">
          <mxGeometry x="230" y="245" width="40" height="40" as="geometry" />
        </mxCell>
        <mxCell id="JwPCDsrIfk_1fl6KGNgR-21" value="3.0m-5.0m" style="text;strokeColor=none;fillColor=none;spacingLeft=4;spacingRight=4;overflow=hidden;rotatable=0;points=[[0,0.5],[1,0.5]];portConstraint=eastwest;fontSize=12;whiteSpace=wrap;html=1;" parent="1" vertex="1">
          <mxGeometry x="280" y="245" width="50" height="30" as="geometry" />
        </mxCell>
        <mxCell id="JwPCDsrIfk_1fl6KGNgR-23" value="" style="endArrow=classic;html=1;rounded=0;" parent="1" edge="1">
          <mxGeometry width="50" height="50" relative="1" as="geometry">
            <mxPoint x="124.5" y="330" as="sourcePoint" />
            <mxPoint x="124.5" y="250" as="targetPoint" />
          </mxGeometry>
        </mxCell>
        <mxCell id="JwPCDsrIfk_1fl6KGNgR-25" value="Y" style="edgeLabel;html=1;align=center;verticalAlign=middle;resizable=0;points=[];" parent="JwPCDsrIfk_1fl6KGNgR-23" vertex="1" connectable="0">
          <mxGeometry x="0.1212" y="1" relative="1" as="geometry">
            <mxPoint as="offset" />
          </mxGeometry>
        </mxCell>
        <mxCell id="JwPCDsrIfk_1fl6KGNgR-24" value="" style="endArrow=classic;html=1;rounded=0;" parent="1" edge="1">
          <mxGeometry width="50" height="50" relative="1" as="geometry">
            <mxPoint x="110" y="320" as="sourcePoint" />
            <mxPoint x="160" y="320" as="targetPoint" />
          </mxGeometry>
        </mxCell>
        <mxCell id="JwPCDsrIfk_1fl6KGNgR-26" value="X" style="edgeLabel;html=1;align=center;verticalAlign=middle;resizable=0;points=[];" parent="JwPCDsrIfk_1fl6KGNgR-24" vertex="1" connectable="0">
          <mxGeometry x="0.0846" y="-2" relative="1" as="geometry">
            <mxPoint as="offset" />
          </mxGeometry>
        </mxCell>
        <mxCell id="JwPCDsrIfk_1fl6KGNgR-27" value="&lt;font style=&quot;font-size: 11px;&quot;&gt;后轴中心(0,0)&lt;/font&gt;" style="text;html=1;strokeColor=none;fillColor=none;align=center;verticalAlign=middle;whiteSpace=wrap;rounded=0;" parent="1" vertex="1">
          <mxGeometry x="90" y="340" width="50" as="geometry" />
        </mxCell>
        <mxCell id="JwPCDsrIfk_1fl6KGNgR-28" value="(-1.125,3.776)" style="text;html=1;strokeColor=none;fillColor=none;align=center;verticalAlign=middle;whiteSpace=wrap;rounded=0;" parent="1" vertex="1">
          <mxGeometry x="70" y="150" width="30" height="30" as="geometry" />
        </mxCell>
        <mxCell id="JwPCDsrIfk_1fl6KGNgR-29" value="(-1.125,3.776)" style="text;html=1;strokeColor=none;fillColor=none;align=center;verticalAlign=middle;whiteSpace=wrap;rounded=0;" parent="1" vertex="1">
          <mxGeometry x="580" y="160" width="30" height="30" as="geometry" />
        </mxCell>
        <mxCell id="JwPCDsrIfk_1fl6KGNgR-30" value="(1.125,3.776)" style="text;html=1;strokeColor=none;fillColor=none;align=center;verticalAlign=middle;whiteSpace=wrap;rounded=0;" parent="1" vertex="1">
          <mxGeometry x="670" y="160" width="30" height="30" as="geometry" />
        </mxCell>
        <mxCell id="JwPCDsrIfk_1fl6KGNgR-31" value="(3.925,6.576)" style="text;html=1;strokeColor=none;fillColor=none;align=center;verticalAlign=middle;whiteSpace=wrap;rounded=0;" parent="1" vertex="1">
          <mxGeometry x="810" y="85" width="30" height="30" as="geometry" />
        </mxCell>
        <mxCell id="JwPCDsrIfk_1fl6KGNgR-33" value="(2.425,5.076)" style="text;html=1;strokeColor=none;fillColor=none;align=center;verticalAlign=middle;whiteSpace=wrap;rounded=0;" parent="1" vertex="1">
          <mxGeometry x="730" y="120" width="30" height="30" as="geometry" />
        </mxCell>
        <mxCell id="JwPCDsrIfk_1fl6KGNgR-34" value="(-1.125,-1.055)" style="text;html=1;strokeColor=none;fillColor=none;align=center;verticalAlign=middle;whiteSpace=wrap;rounded=0;" parent="1" vertex="1">
          <mxGeometry x="580" y="250" width="30" height="30" as="geometry" />
        </mxCell>
        <mxCell id="JwPCDsrIfk_1fl6KGNgR-35" value="(-1.125,1.055)" style="text;html=1;strokeColor=none;fillColor=none;align=center;verticalAlign=middle;whiteSpace=wrap;rounded=0;" parent="1" vertex="1">
          <mxGeometry x="680" y="250" width="30" height="30" as="geometry" />
        </mxCell>
        <mxCell id="JwPCDsrIfk_1fl6KGNgR-39" value="(2.425,-2.355)" style="text;html=1;strokeColor=none;fillColor=none;align=center;verticalAlign=middle;whiteSpace=wrap;rounded=0;" parent="1" vertex="1">
          <mxGeometry x="730" y="290" width="30" height="30" as="geometry" />
        </mxCell>
        <mxCell id="JwPCDsrIfk_1fl6KGNgR-41" value="(5.925,8.576)" style="text;html=1;strokeColor=none;fillColor=none;align=center;verticalAlign=middle;whiteSpace=wrap;rounded=0;" parent="1" vertex="1">
          <mxGeometry x="880" y="20" width="30" height="30" as="geometry" />
        </mxCell>
        <mxCell id="JwPCDsrIfk_1fl6KGNgR-52" value="(-2.425,5.076)" style="text;html=1;strokeColor=none;fillColor=none;align=center;verticalAlign=middle;whiteSpace=wrap;rounded=0;" parent="1" vertex="1">
          <mxGeometry x="540" y="120" width="30" height="30" as="geometry" />
        </mxCell>
        <mxCell id="JwPCDsrIfk_1fl6KGNgR-53" value="(-2.425,-2.355)" style="text;html=1;strokeColor=none;fillColor=none;align=center;verticalAlign=middle;whiteSpace=wrap;rounded=0;" parent="1" vertex="1">
          <mxGeometry x="540" y="290" width="30" height="30" as="geometry" />
        </mxCell>
        <mxCell id="JwPCDsrIfk_1fl6KGNgR-55" value="(3.925,-3.855)" style="text;html=1;strokeColor=none;fillColor=none;align=center;verticalAlign=middle;whiteSpace=wrap;rounded=0;" parent="1" vertex="1">
          <mxGeometry x="797" y="340" width="30" height="30" as="geometry" />
        </mxCell>
        <mxCell id="JwPCDsrIfk_1fl6KGNgR-56" value="(-3.925,6.576)" style="text;html=1;strokeColor=none;fillColor=none;align=center;verticalAlign=middle;whiteSpace=wrap;rounded=0;" parent="1" vertex="1">
          <mxGeometry x="510" y="80" width="30" height="30" as="geometry" />
        </mxCell>
        <mxCell id="JwPCDsrIfk_1fl6KGNgR-58" value="(-3.925,-3.855)" style="text;html=1;strokeColor=none;fillColor=none;align=center;verticalAlign=middle;whiteSpace=wrap;rounded=0;" parent="1" vertex="1">
          <mxGeometry x="500" y="340" width="30" height="30" as="geometry" />
        </mxCell>
        <mxCell id="JwPCDsrIfk_1fl6KGNgR-60" value="(5.925,-5.855)" style="text;html=1;strokeColor=none;fillColor=none;align=center;verticalAlign=middle;whiteSpace=wrap;rounded=0;" parent="1" vertex="1">
          <mxGeometry x="880" y="400" width="30" height="30" as="geometry" />
        </mxCell>
        <mxCell id="JwPCDsrIfk_1fl6KGNgR-61" value="(-5.925,8.576)" style="text;html=1;strokeColor=none;fillColor=none;align=center;verticalAlign=middle;whiteSpace=wrap;rounded=0;" parent="1" vertex="1">
          <mxGeometry x="490" y="10" width="30" height="30" as="geometry" />
        </mxCell>
        <mxCell id="JwPCDsrIfk_1fl6KGNgR-62" value="(-5.925,-5.855)" style="text;html=1;strokeColor=none;fillColor=none;align=center;verticalAlign=middle;whiteSpace=wrap;rounded=0;" parent="1" vertex="1">
          <mxGeometry x="490" y="390" width="30" height="30" as="geometry" />
        </mxCell>
        <mxCell id="JwPCDsrIfk_1fl6KGNgR-68" value="" style="endArrow=classic;startArrow=classic;html=1;rounded=0;" parent="1" edge="1">
          <mxGeometry width="50" height="50" relative="1" as="geometry">
            <mxPoint x="170" y="240" as="sourcePoint" />
            <mxPoint x="220" y="240" as="targetPoint" />
          </mxGeometry>
        </mxCell>
        <mxCell id="JwPCDsrIfk_1fl6KGNgR-69" value="" style="endArrow=classic;startArrow=classic;html=1;rounded=0;" parent="1" edge="1">
          <mxGeometry width="50" height="50" relative="1" as="geometry">
            <mxPoint x="220" y="240" as="sourcePoint" />
            <mxPoint x="280" y="240" as="targetPoint" />
          </mxGeometry>
        </mxCell>
        <mxCell id="JwPCDsrIfk_1fl6KGNgR-70" value="" style="endArrow=classic;startArrow=classic;html=1;rounded=0;" parent="1" edge="1">
          <mxGeometry width="50" height="50" relative="1" as="geometry">
            <mxPoint x="280" y="240" as="sourcePoint" />
            <mxPoint x="340" y="240" as="targetPoint" />
          </mxGeometry>
        </mxCell>
        <mxCell id="JwPCDsrIfk_1fl6KGNgR-72" value="(1.125,3.776)" style="text;html=1;strokeColor=none;fillColor=none;align=center;verticalAlign=middle;whiteSpace=wrap;rounded=0;" parent="1" vertex="1">
          <mxGeometry x="160" y="150" width="30" height="30" as="geometry" />
        </mxCell>
        <mxCell id="JwPCDsrIfk_1fl6KGNgR-73" value="(1.125,3.776)" style="text;html=1;strokeColor=none;fillColor=none;align=center;verticalAlign=middle;whiteSpace=wrap;rounded=0;" parent="1" vertex="1">
          <mxGeometry x="-360" y="285" width="30" height="30" as="geometry" />
        </mxCell>
        <mxCell id="JwPCDsrIfk_1fl6KGNgR-74" value="(-1.125,-1.055)" style="text;html=1;strokeColor=none;fillColor=none;align=center;verticalAlign=middle;whiteSpace=wrap;rounded=0;" parent="1" vertex="1">
          <mxGeometry x="70" y="365" width="30" height="30" as="geometry" />
        </mxCell>
        <mxCell id="JwPCDsrIfk_1fl6KGNgR-77" value="(-1.125,1.055)" style="text;html=1;strokeColor=none;fillColor=none;align=center;verticalAlign=middle;whiteSpace=wrap;rounded=0;" parent="1" vertex="1">
          <mxGeometry x="160" y="365" width="30" height="30" as="geometry" />
        </mxCell>
        <mxCell id="JwPCDsrIfk_1fl6KGNgR-82" value="(-3.925,6.576)" style="text;html=1;strokeColor=none;fillColor=none;align=center;verticalAlign=middle;whiteSpace=wrap;rounded=0;" parent="1" vertex="1">
          <mxGeometry x="-30" y="65" width="30" height="30" as="geometry" />
        </mxCell>
        <mxCell id="JwPCDsrIfk_1fl6KGNgR-84" value="(3.925,6.576)" style="text;html=1;strokeColor=none;fillColor=none;align=center;verticalAlign=middle;whiteSpace=wrap;rounded=0;" parent="1" vertex="1">
          <mxGeometry x="260" y="65" width="30" height="30" as="geometry" />
        </mxCell>
        <mxCell id="JwPCDsrIfk_1fl6KGNgR-86" value="(-2.425,5.076)" style="text;html=1;strokeColor=none;fillColor=none;align=center;verticalAlign=middle;whiteSpace=wrap;rounded=0;" parent="1" vertex="1">
          <mxGeometry x="20" y="103.75" width="30" height="30" as="geometry" />
        </mxCell>
        <mxCell id="JwPCDsrIfk_1fl6KGNgR-89" value="(2.425,5.076)" style="text;html=1;strokeColor=none;fillColor=none;align=center;verticalAlign=middle;whiteSpace=wrap;rounded=0;" parent="1" vertex="1">
          <mxGeometry x="200" y="103.75" width="30" height="30" as="geometry" />
        </mxCell>
        <mxCell id="JwPCDsrIfk_1fl6KGNgR-92" value="(2.425,5.076)" style="text;html=1;strokeColor=none;fillColor=none;align=center;verticalAlign=middle;whiteSpace=wrap;rounded=0;" parent="1" vertex="1">
          <mxGeometry x="-330" y="232.5" width="30" height="30" as="geometry" />
        </mxCell>
        <mxCell id="JwPCDsrIfk_1fl6KGNgR-93" value="(-2.425,-2.355)" style="text;html=1;strokeColor=none;fillColor=none;align=center;verticalAlign=middle;whiteSpace=wrap;rounded=0;" parent="1" vertex="1">
          <mxGeometry x="20" y="420" width="30" height="30" as="geometry" />
        </mxCell>
        <mxCell id="JwPCDsrIfk_1fl6KGNgR-98" value="(2.425,-2.355)" style="text;html=1;strokeColor=none;fillColor=none;align=center;verticalAlign=middle;whiteSpace=wrap;rounded=0;" parent="1" vertex="1">
          <mxGeometry x="200" y="420" width="30" height="30" as="geometry" />
        </mxCell>
        <mxCell id="JwPCDsrIfk_1fl6KGNgR-103" value="(2.425,-2.355)" style="text;html=1;strokeColor=none;fillColor=none;align=center;verticalAlign=middle;whiteSpace=wrap;rounded=0;" parent="1" vertex="1">
          <mxGeometry x="-350" y="545" width="30" height="30" as="geometry" />
        </mxCell>
        <mxCell id="JwPCDsrIfk_1fl6KGNgR-104" value="(-3.925,-3.855)" style="text;html=1;strokeColor=none;fillColor=none;align=center;verticalAlign=middle;whiteSpace=wrap;rounded=0;" parent="1" vertex="1">
          <mxGeometry x="-30" y="465" width="30" height="30" as="geometry" />
        </mxCell>
        <mxCell id="JwPCDsrIfk_1fl6KGNgR-111" value="(3.925,-3.855)" style="text;html=1;strokeColor=none;fillColor=none;align=center;verticalAlign=middle;whiteSpace=wrap;rounded=0;" parent="1" vertex="1">
          <mxGeometry x="260" y="470" width="30" height="30" as="geometry" />
        </mxCell>
        <mxCell id="JwPCDsrIfk_1fl6KGNgR-118" value="(3.925,-3.855)" style="text;html=1;strokeColor=none;fillColor=none;align=center;verticalAlign=middle;whiteSpace=wrap;rounded=0;" parent="1" vertex="1">
          <mxGeometry x="-333" y="597.5" width="30" height="30" as="geometry" />
        </mxCell>
        <mxCell id="JwPCDsrIfk_1fl6KGNgR-119" value="(-5.925,-5.855)" style="text;html=1;strokeColor=none;fillColor=none;align=center;verticalAlign=middle;whiteSpace=wrap;rounded=0;" parent="1" vertex="1">
          <mxGeometry x="-103" y="517.5" width="30" height="30" as="geometry" />
        </mxCell>
        <mxCell id="JwPCDsrIfk_1fl6KGNgR-128" value="(5.925,-5.855)" style="text;html=1;strokeColor=none;fillColor=none;align=center;verticalAlign=middle;whiteSpace=wrap;rounded=0;" parent="1" vertex="1">
          <mxGeometry x="320" y="517.5" width="30" height="30" as="geometry" />
        </mxCell>
        <mxCell id="JwPCDsrIfk_1fl6KGNgR-137" value="(5.925,-5.855)" style="text;html=1;strokeColor=none;fillColor=none;align=center;verticalAlign=middle;whiteSpace=wrap;rounded=0;" parent="1" vertex="1">
          <mxGeometry x="-283" y="525" width="30" height="30" as="geometry" />
        </mxCell>
        <mxCell id="JwPCDsrIfk_1fl6KGNgR-138" value="(-5.925,8.576)" style="text;html=1;strokeColor=none;fillColor=none;align=center;verticalAlign=middle;whiteSpace=wrap;rounded=0;" parent="1" vertex="1">
          <mxGeometry x="-103" y="10" width="30" height="30" as="geometry" />
        </mxCell>
        <mxCell id="JwPCDsrIfk_1fl6KGNgR-149" value="(5.925,8.576)" style="text;html=1;strokeColor=none;fillColor=none;align=center;verticalAlign=middle;whiteSpace=wrap;rounded=0;" parent="1" vertex="1">
          <mxGeometry x="330" y="10" width="30" height="30" as="geometry" />
        </mxCell>
        <mxCell id="_xgjPrvIuVDt7b6Uq5TP-1" value="" style="rounded=0;whiteSpace=wrap;html=1;fillColor=#99CCFF;" vertex="1" parent="1">
          <mxGeometry x="336.5" y="695" width="430" height="490" as="geometry" />
        </mxCell>
        <mxCell id="_xgjPrvIuVDt7b6Uq5TP-2" value="" style="rounded=0;whiteSpace=wrap;html=1;fillColor=#FFCC99;" vertex="1" parent="1">
          <mxGeometry x="396.5" y="750" width="310" height="380" as="geometry" />
        </mxCell>
        <mxCell id="_xgjPrvIuVDt7b6Uq5TP-3" value="" style="rounded=0;whiteSpace=wrap;html=1;fillColor=#CCFFCC;" vertex="1" parent="1">
          <mxGeometry x="456.5" y="790" width="190" height="290" as="geometry" />
        </mxCell>
        <mxCell id="_xgjPrvIuVDt7b6Uq5TP-4" value="" style="rounded=0;whiteSpace=wrap;html=1;" vertex="1" parent="1">
          <mxGeometry x="506.5" y="830" width="90" height="200" as="geometry" />
        </mxCell>
        <mxCell id="_xgjPrvIuVDt7b6Uq5TP-5" value="0.2m-1.5m" style="text;strokeColor=none;fillColor=none;spacingLeft=4;spacingRight=4;overflow=hidden;rotatable=0;points=[[0,0.5],[1,0.5]];portConstraint=eastwest;fontSize=12;whiteSpace=wrap;html=1;" vertex="1" parent="1">
          <mxGeometry x="596.5" y="905" width="50" height="35" as="geometry" />
        </mxCell>
        <mxCell id="_xgjPrvIuVDt7b6Uq5TP-6" value="1.5m-3.0m" style="text;strokeColor=none;fillColor=none;spacingLeft=4;spacingRight=4;overflow=hidden;rotatable=0;points=[[0,0.5],[1,0.5]];portConstraint=eastwest;fontSize=12;whiteSpace=wrap;html=1;" vertex="1" parent="1">
          <mxGeometry x="656.5" y="905" width="40" height="40" as="geometry" />
        </mxCell>
        <mxCell id="_xgjPrvIuVDt7b6Uq5TP-7" value="3.0m-5.0m" style="text;strokeColor=none;fillColor=none;spacingLeft=4;spacingRight=4;overflow=hidden;rotatable=0;points=[[0,0.5],[1,0.5]];portConstraint=eastwest;fontSize=12;whiteSpace=wrap;html=1;" vertex="1" parent="1">
          <mxGeometry x="706.5" y="905" width="50" height="30" as="geometry" />
        </mxCell>
        <mxCell id="_xgjPrvIuVDt7b6Uq5TP-8" value="" style="endArrow=classic;html=1;rounded=0;" edge="1" parent="1">
          <mxGeometry width="50" height="50" relative="1" as="geometry">
            <mxPoint x="551" y="990" as="sourcePoint" />
            <mxPoint x="551" y="910" as="targetPoint" />
          </mxGeometry>
        </mxCell>
        <mxCell id="_xgjPrvIuVDt7b6Uq5TP-9" value="Y" style="edgeLabel;html=1;align=center;verticalAlign=middle;resizable=0;points=[];" vertex="1" connectable="0" parent="_xgjPrvIuVDt7b6Uq5TP-8">
          <mxGeometry x="0.1212" y="1" relative="1" as="geometry">
            <mxPoint as="offset" />
          </mxGeometry>
        </mxCell>
        <mxCell id="_xgjPrvIuVDt7b6Uq5TP-10" value="" style="endArrow=classic;html=1;rounded=0;" edge="1" parent="1">
          <mxGeometry width="50" height="50" relative="1" as="geometry">
            <mxPoint x="536.5" y="980" as="sourcePoint" />
            <mxPoint x="586.5" y="980" as="targetPoint" />
          </mxGeometry>
        </mxCell>
        <mxCell id="_xgjPrvIuVDt7b6Uq5TP-11" value="X" style="edgeLabel;html=1;align=center;verticalAlign=middle;resizable=0;points=[];" vertex="1" connectable="0" parent="_xgjPrvIuVDt7b6Uq5TP-10">
          <mxGeometry x="0.0846" y="-2" relative="1" as="geometry">
            <mxPoint as="offset" />
          </mxGeometry>
        </mxCell>
        <mxCell id="_xgjPrvIuVDt7b6Uq5TP-12" value="&lt;font style=&quot;font-size: 11px;&quot;&gt;后轴中心(0,0)&lt;/font&gt;" style="text;html=1;strokeColor=none;fillColor=none;align=center;verticalAlign=middle;whiteSpace=wrap;rounded=0;" vertex="1" parent="1">
          <mxGeometry x="516.5" y="1000" width="50" as="geometry" />
        </mxCell>
        <mxCell id="_xgjPrvIuVDt7b6Uq5TP-13" value="(-1.184,4.134)" style="text;html=1;strokeColor=none;fillColor=none;align=center;verticalAlign=middle;whiteSpace=wrap;rounded=0;" vertex="1" parent="1">
          <mxGeometry x="496.5" y="810" width="30" height="30" as="geometry" />
        </mxCell>
        <mxCell id="_xgjPrvIuVDt7b6Uq5TP-14" value="" style="endArrow=classic;startArrow=classic;html=1;rounded=0;" edge="1" parent="1">
          <mxGeometry width="50" height="50" relative="1" as="geometry">
            <mxPoint x="596.5" y="900" as="sourcePoint" />
            <mxPoint x="646.5" y="900" as="targetPoint" />
          </mxGeometry>
        </mxCell>
        <mxCell id="_xgjPrvIuVDt7b6Uq5TP-15" value="" style="endArrow=classic;startArrow=classic;html=1;rounded=0;" edge="1" parent="1">
          <mxGeometry width="50" height="50" relative="1" as="geometry">
            <mxPoint x="646.5" y="900" as="sourcePoint" />
            <mxPoint x="706.5" y="900" as="targetPoint" />
          </mxGeometry>
        </mxCell>
        <mxCell id="_xgjPrvIuVDt7b6Uq5TP-16" value="" style="endArrow=classic;startArrow=classic;html=1;rounded=0;" edge="1" parent="1">
          <mxGeometry width="50" height="50" relative="1" as="geometry">
            <mxPoint x="706.5" y="900" as="sourcePoint" />
            <mxPoint x="766.5" y="900" as="targetPoint" />
          </mxGeometry>
        </mxCell>
        <mxCell id="_xgjPrvIuVDt7b6Uq5TP-17" value="(1.184,4.134)" style="text;html=1;strokeColor=none;fillColor=none;align=center;verticalAlign=middle;whiteSpace=wrap;rounded=0;" vertex="1" parent="1">
          <mxGeometry x="586.5" y="810" width="30" height="30" as="geometry" />
        </mxCell>
        <mxCell id="_xgjPrvIuVDt7b6Uq5TP-18" value="(-1.184,-1.242)" style="text;html=1;strokeColor=none;fillColor=none;align=center;verticalAlign=middle;whiteSpace=wrap;rounded=0;" vertex="1" parent="1">
          <mxGeometry x="496.5" y="1025" width="30" height="30" as="geometry" />
        </mxCell>
        <mxCell id="_xgjPrvIuVDt7b6Uq5TP-19" value="(1.184,-1.242)" style="text;html=1;strokeColor=none;fillColor=none;align=center;verticalAlign=middle;whiteSpace=wrap;rounded=0;" vertex="1" parent="1">
          <mxGeometry x="586.5" y="1025" width="30" height="30" as="geometry" />
        </mxCell>
        <mxCell id="_xgjPrvIuVDt7b6Uq5TP-20" value="(-3.984,6.934)" style="text;html=1;strokeColor=none;fillColor=none;align=center;verticalAlign=middle;whiteSpace=wrap;rounded=0;" vertex="1" parent="1">
          <mxGeometry x="396.5" y="725" width="30" height="30" as="geometry" />
        </mxCell>
        <mxCell id="_xgjPrvIuVDt7b6Uq5TP-21" value="(3.984,6.934)" style="text;html=1;strokeColor=none;fillColor=none;align=center;verticalAlign=middle;whiteSpace=wrap;rounded=0;" vertex="1" parent="1">
          <mxGeometry x="686.5" y="725" width="30" height="30" as="geometry" />
        </mxCell>
        <mxCell id="_xgjPrvIuVDt7b6Uq5TP-22" value="(-2.484,5.434)" style="text;html=1;strokeColor=none;fillColor=none;align=center;verticalAlign=middle;whiteSpace=wrap;rounded=0;" vertex="1" parent="1">
          <mxGeometry x="446.5" y="763.75" width="30" height="30" as="geometry" />
        </mxCell>
        <mxCell id="_xgjPrvIuVDt7b6Uq5TP-23" value="(2.484,5.434)" style="text;html=1;strokeColor=none;fillColor=none;align=center;verticalAlign=middle;whiteSpace=wrap;rounded=0;" vertex="1" parent="1">
          <mxGeometry x="630" y="763.75" width="26.5" height="30" as="geometry" />
        </mxCell>
        <mxCell id="_xgjPrvIuVDt7b6Uq5TP-24" value="(-2.484,-2.542)" style="text;html=1;strokeColor=none;fillColor=none;align=center;verticalAlign=middle;whiteSpace=wrap;rounded=0;" vertex="1" parent="1">
          <mxGeometry x="446.5" y="1080" width="30" height="30" as="geometry" />
        </mxCell>
        <mxCell id="_xgjPrvIuVDt7b6Uq5TP-25" value="(2.484,-2.542)" style="text;html=1;strokeColor=none;fillColor=none;align=center;verticalAlign=middle;whiteSpace=wrap;rounded=0;" vertex="1" parent="1">
          <mxGeometry x="626.5" y="1080" width="30" height="30" as="geometry" />
        </mxCell>
        <mxCell id="_xgjPrvIuVDt7b6Uq5TP-26" value="(-3.984,-4.042)" style="text;html=1;strokeColor=none;fillColor=none;align=center;verticalAlign=middle;whiteSpace=wrap;rounded=0;" vertex="1" parent="1">
          <mxGeometry x="396.5" y="1125" width="30" height="30" as="geometry" />
        </mxCell>
        <mxCell id="_xgjPrvIuVDt7b6Uq5TP-27" value="(3.984,-4.042)" style="text;html=1;strokeColor=none;fillColor=none;align=center;verticalAlign=middle;whiteSpace=wrap;rounded=0;" vertex="1" parent="1">
          <mxGeometry x="686.5" y="1130" width="30" height="30" as="geometry" />
        </mxCell>
        <mxCell id="_xgjPrvIuVDt7b6Uq5TP-28" value="(-5.984,-6.042)" style="text;html=1;strokeColor=none;fillColor=none;align=center;verticalAlign=middle;whiteSpace=wrap;rounded=0;" vertex="1" parent="1">
          <mxGeometry x="323.5" y="1177.5" width="30" height="30" as="geometry" />
        </mxCell>
        <mxCell id="_xgjPrvIuVDt7b6Uq5TP-29" value="(5.984,-6.042)" style="text;html=1;strokeColor=none;fillColor=none;align=center;verticalAlign=middle;whiteSpace=wrap;rounded=0;" vertex="1" parent="1">
          <mxGeometry x="746.5" y="1177.5" width="30" height="30" as="geometry" />
        </mxCell>
        <mxCell id="_xgjPrvIuVDt7b6Uq5TP-30" value="(-5.984,8.934)" style="text;html=1;strokeColor=none;fillColor=none;align=center;verticalAlign=middle;whiteSpace=wrap;rounded=0;" vertex="1" parent="1">
          <mxGeometry x="323.5" y="670" width="30" height="30" as="geometry" />
        </mxCell>
        <mxCell id="_xgjPrvIuVDt7b6Uq5TP-31" value="(5.984,8.934)" style="text;html=1;strokeColor=none;fillColor=none;align=center;verticalAlign=middle;whiteSpace=wrap;rounded=0;" vertex="1" parent="1">
          <mxGeometry x="756.5" y="670" width="30" height="30" as="geometry" />
        </mxCell>
      </root>
    </mxGraphModel>
  </diagram>
</mxfile>
